<?xml version="1.0" encoding="UTF-8" standalone="no"?>
<!DOCTYPE svg PUBLIC "-//W3C//DTD SVG 1.1//EN" "http://www.w3.org/Graphics/SVG/1.1/DTD/svg11.dtd">
<svg width="100%" height="100%" viewBox="0 0 2099 1356" version="1.1" xmlns="http://www.w3.org/2000/svg" xmlns:xlink="http://www.w3.org/1999/xlink" xml:space="preserve" xmlns:serif="http://www.serif.com/" style="fill-rule:evenodd;clip-rule:evenodd;stroke-linejoin:round;stroke-miterlimit:2;">
    <g transform="matrix(1,0,0,1,-190.847,-609.072)">
        <g transform="matrix(0.470712,0,0,1,693.108,22.812)">
            <path d="M1814.39,602.799L1814.39,834.168C1814.39,842.721 1799.64,849.666 1781.47,849.666L542.882,849.666C524.712,849.666 509.959,842.721 509.959,834.168L509.959,602.799C509.959,594.246 524.712,587.302 542.882,587.302L1781.47,587.302C1799.64,587.302 1814.39,594.246 1814.39,602.799Z" style="fill:none;"/>
            <clipPath id="_clip1">
                <path d="M1814.39,602.799L1814.39,834.168C1814.39,842.721 1799.64,849.666 1781.47,849.666L542.882,849.666C524.712,849.666 509.959,842.721 509.959,834.168L509.959,602.799C509.959,594.246 524.712,587.302 542.882,587.302L1781.47,587.302C1799.64,587.302 1814.39,594.246 1814.39,602.799Z"/>
            </clipPath>
            <g clip-path="url(#_clip1)">
                <g transform="matrix(2.12444,0,0,1,-600.603,-355.684)">
                    <g transform="matrix(75,0,0,75,1077.43,1102.08)">
                    </g>
                    <text x="582.43px" y="1102.08px" style="font-family:'IBMPlexMono', 'IBM Plex Mono', monospace;font-size:75px;fill:rgb(189,33,33);stroke:black;stroke-width:6.25px;">&lt;greeting/&gt;</text>
                </g>
            </g>
            <path d="M1814.39,602.799L1814.39,834.168C1814.39,842.721 1799.64,849.666 1781.47,849.666L542.882,849.666C524.712,849.666 509.959,842.721 509.959,834.168L509.959,602.799C509.959,594.246 524.712,587.302 542.882,587.302L1781.47,587.302C1799.64,587.302 1814.39,594.246 1814.39,602.799Z" style="fill:none;stroke:black;stroke-width:2.67px;stroke-linecap:round;stroke-miterlimit:1.5;"/>
        </g>
        <g transform="matrix(0.568267,0,0,1,1257.37,662.645)">
            <path d="M1814.39,602.799L1814.39,834.168C1814.39,842.721 1802.17,849.666 1787.12,849.666L537.23,849.666C522.179,849.666 509.959,842.721 509.959,834.168L509.959,602.799C509.959,594.246 522.179,587.302 537.23,587.302L1787.12,587.302C1802.17,587.302 1814.39,594.246 1814.39,602.799Z" style="fill:none;"/>
            <clipPath id="_clip2">
                <path d="M1814.39,602.799L1814.39,834.168C1814.39,842.721 1802.17,849.666 1787.12,849.666L537.23,849.666C522.179,849.666 509.959,842.721 509.959,834.168L509.959,602.799C509.959,594.246 522.179,587.302 537.23,587.302L1787.12,587.302C1802.17,587.302 1814.39,594.246 1814.39,602.799Z"/>
            </clipPath>
            <g clip-path="url(#_clip2)">
                <g transform="matrix(1.75974,0,0,1,-409.556,-355.684)">
                    <g transform="matrix(75,0,0,75,1208.37,1102.08)">
                    </g>
                    <text x="578.365px" y="1102.08px" style="font-family:'IBMPlexMono', 'IBM Plex Mono', monospace;font-size:75px;fill:rgb(189,33,33);stroke:black;stroke-width:6.25px;">&quot;Hello World!&quot;</text>
                </g>
            </g>
            <path d="M1814.39,602.799L1814.39,834.168C1814.39,842.721 1802.17,849.666 1787.12,849.666L537.23,849.666C522.179,849.666 509.959,842.721 509.959,834.168L509.959,602.799C509.959,594.246 522.179,587.302 537.23,587.302L1787.12,587.302C1802.17,587.302 1814.39,594.246 1814.39,602.799Z" style="fill:none;stroke:black;stroke-width:2.56px;stroke-linecap:round;stroke-miterlimit:1.5;"/>
        </g>
        <g transform="matrix(0.568267,0,0,1,-97.9042,1113.76)">
            <path d="M1814.39,602.799L1814.39,834.168C1814.39,842.721 1802.17,849.666 1787.12,849.666L537.23,849.666C522.179,849.666 509.959,842.721 509.959,834.168L509.959,602.799C509.959,594.246 522.179,587.302 537.23,587.302L1787.12,587.302C1802.17,587.302 1814.39,594.246 1814.39,602.799Z" style="fill:none;"/>
            <clipPath id="_clip3">
                <path d="M1814.39,602.799L1814.39,834.168C1814.39,842.721 1802.17,849.666 1787.12,849.666L537.23,849.666C522.179,849.666 509.959,842.721 509.959,834.168L509.959,602.799C509.959,594.246 522.179,587.302 537.23,587.302L1787.12,587.302C1802.17,587.302 1814.39,594.246 1814.39,602.799Z"/>
            </clipPath>
            <g clip-path="url(#_clip3)">
                <g transform="matrix(1.75974,0,0,1,-409.556,-355.684)">
                    <g transform="matrix(75,0,0,75,983.365,1102.08)">
                    </g>
                    <text x="803.365px" y="1102.08px" style="font-family:'IBMPlexMono', 'IBM Plex Mono', monospace;font-size:75px;fill:rgb(189,33,33);stroke:black;stroke-width:6.25px;">&quot;en&quot;</text>
                </g>
            </g>
            <path d="M1814.39,602.799L1814.39,834.168C1814.39,842.721 1802.17,849.666 1787.12,849.666L537.23,849.666C522.179,849.666 509.959,842.721 509.959,834.168L509.959,602.799C509.959,594.246 522.179,587.302 537.23,587.302L1787.12,587.302C1802.17,587.302 1814.39,594.246 1814.39,602.799Z" style="fill:none;stroke:black;stroke-width:2.56px;stroke-linecap:round;stroke-miterlimit:1.5;"/>
        </g>
        <g transform="matrix(0.568267,0,0,1,-97.9042,662.645)">
            <path d="M1814.39,602.799L1814.39,834.168C1814.39,842.721 1802.17,849.666 1787.12,849.666L537.23,849.666C522.179,849.666 509.959,842.721 509.959,834.168L509.959,602.799C509.959,594.246 522.179,587.302 537.23,587.302L1787.12,587.302C1802.17,587.302 1814.39,594.246 1814.39,602.799Z" style="fill:none;"/>
            <clipPath id="_clip4">
                <path d="M1814.39,602.799L1814.39,834.168C1814.39,842.721 1802.17,849.666 1787.12,849.666L537.23,849.666C522.179,849.666 509.959,842.721 509.959,834.168L509.959,602.799C509.959,594.246 522.179,587.302 537.23,587.302L1787.12,587.302C1802.17,587.302 1814.39,594.246 1814.39,602.799Z"/>
            </clipPath>
            <g clip-path="url(#_clip4)">
                <g transform="matrix(1.75974,0,0,1,-409.556,-355.684)">
                    <g transform="matrix(75,0,0,75,1005.87,1102.08)">
                    </g>
                    <text x="780.865px" y="1102.08px" style="font-family:'IBMPlexMono', 'IBM Plex Mono', monospace;font-size:75px;fill:rgb(189,33,33);stroke:black;stroke-width:6.25px;">@lang</text>
                </g>
            </g>
            <path d="M1814.39,602.799L1814.39,834.168C1814.39,842.721 1802.17,849.666 1787.12,849.666L537.23,849.666C522.179,849.666 509.959,842.721 509.959,834.168L509.959,602.799C509.959,594.246 522.179,587.302 537.23,587.302L1787.12,587.302C1802.17,587.302 1814.39,594.246 1814.39,602.799Z" style="fill:none;stroke:black;stroke-width:2.56px;stroke-linecap:round;stroke-miterlimit:1.5;"/>
        </g>
        <g transform="matrix(0.999666,0.0141174,-0.0258575,0.545787,91.1636,335.1)">
            <path d="M1179.64,954.017L1188.58,1299.62" style="fill:none;stroke:black;stroke-width:10.49px;stroke-linecap:round;stroke-miterlimit:1.5;"/>
        </g>
        <g transform="matrix(0.999666,0.0141174,-0.0258575,0.545787,763.216,523.852)">
            <path d="M1179.64,954.017L1188.58,1299.62" style="fill:none;stroke:black;stroke-width:10.49px;stroke-linecap:round;stroke-miterlimit:1.5;"/>
        </g>
        <g transform="matrix(0.999666,0.0141174,-0.0258575,0.545787,-592.058,523.852)">
            <path d="M1179.64,954.017L1188.58,1299.62" style="fill:none;stroke:black;stroke-width:10.49px;stroke-linecap:round;stroke-miterlimit:1.5;"/>
        </g>
        <g transform="matrix(0.999666,0.0141174,-0.0258575,0.545787,-592.966,974.967)">
            <path d="M1179.64,954.017L1188.58,1299.62" style="fill:none;stroke:black;stroke-width:10.49px;stroke-linecap:round;stroke-miterlimit:1.5;"/>
        </g>
        <g transform="matrix(0.101434,-0.999666,3.92148,0.0258575,-3299.2,2215.77)">
            <path d="M1179.64,954.017L1188.58,1299.62" style="fill:none;stroke:black;stroke-width:2.85px;stroke-linecap:round;stroke-miterlimit:1.5;"/>
        </g>
    </g>
</svg>
